<svg width="128" height="128" viewBox="0 0 128 128" fill="none" xmlns="http://www.w3.org/2000/svg">
    <!-- Background circle -->
    <circle cx="64" cy="64" r="56" fill="#000000"/>
    
    <!-- Robot head outline -->
    <rect x="32" y="24" width="64" height="56" rx="8" fill="#dc2626" stroke="#000000" stroke-width="3"/>
    
    <!-- Antenna -->
    <line x1="64" y1="24" x2="64" y2="12" stroke="#dc2626" stroke-width="4" stroke-linecap="round"/>
    <circle cx="64" cy="10" r="4" fill="#dc2626"/>
    
    <!-- Robot eyes -->
    <circle cx="48" cy="48" r="8" fill="#000000"/>
    <circle cx="80" cy="48" r="8" fill="#000000"/>
    <circle cx="48" cy="48" r="4" fill="#dc2626"/>
    <circle cx="80" cy="48" r="4" fill="#dc2626"/>
    
    <!-- Robot mouth/display -->
    <rect x="44" y="62" width="40" height="8" rx="2" fill="#000000"/>
    <rect x="46" y="64" width="8" height="4" fill="#dc2626"/>
    <rect x="56" y="64" width="8" height="4" fill="#dc2626"/>
    <rect x="66" y="64" width="8" height="4" fill="#dc2626"/>
    <rect x="76" y="64" width="6" height="4" fill="#dc2626"/>
    
    <!-- Robot body -->
    <rect x="36" y="84" width="56" height="32" rx="4" fill="#dc2626" stroke="#000000" stroke-width="3"/>
    
    <!-- Code brackets on body -->
    <path d="M48 94L42 100L48 106" stroke="#000000" stroke-width="3" stroke-linecap="round" stroke-linejoin="round"/>
    <path d="M80 94L86 100L80 106" stroke="#000000" stroke-width="3" stroke-linecap="round" stroke-linejoin="round"/>
    
    <!-- Center panel -->
    <rect x="56" y="92" width="16" height="16" rx="2" fill="#000000"/>
    <circle cx="60" cy="96" r="1.5" fill="#dc2626"/>
    <circle cx="68" cy="96" r="1.5" fill="#dc2626"/>
    <circle cx="60" cy="104" r="1.5" fill="#dc2626"/>
    <circle cx="68" cy="104" r="1.5" fill="#dc2626"/>
</svg>